HIERARCHY
ROOT Hips
{
	OFFSET 0.000000 0.000000 0.000000
	CHANNELS 6 Xposition Yposition Zposition Xrotation Yrotation Zrotation
	JOINT LeftUpLeg_virtual
	{
		OFFSET 0.000000 0.000000 0.000000
		CHANNELS 3 Xrotation Yrotation Zrotation
		JOINT LeftUpLeg
		{
			OFFSET 13.026900 -6.336304 -1.092800
			CHANNELS 3 Xrotation Yrotation Zrotation
			JOINT LeftLeg
			{
				OFFSET 0.524474 -46.096886 9.782700
				CHANNELS 3 Xrotation Yrotation Zrotation
				JOINT LeftFoot
				{
					OFFSET -0.524474 -53.427422 -12.948200
					CHANNELS 3 Xrotation Yrotation Zrotation
					JOINT LeftToeBase
					{
						OFFSET 0.192200 -14.009700 16.364100
						CHANNELS 3 Xrotation Yrotation Zrotation
						JOINT LeftToe_End
						{
							OFFSET -1.784700 -0.561700 9.474800
							CHANNELS 3 Xrotation Yrotation Zrotation
							End Site
							{
								OFFSET 0 0 0
							}
						}
					}
				}
			}
		}
	}
	JOINT RightUpLeg_virtual
	{
		OFFSET 0.000000 0.000000 0.000000
		CHANNELS 3 Xrotation Yrotation Zrotation
		JOINT RightUpLeg
		{
			OFFSET -12.883000 -6.336304 -1.092800
			CHANNELS 3 Xrotation Yrotation Zrotation
			JOINT RightLeg
			{
				OFFSET -0.524587 -46.096825 9.782800
				CHANNELS 3 Xrotation Yrotation Zrotation
				JOINT RightFoot
				{
					OFFSET 0.524587 -53.427383 -12.948300
					CHANNELS 3 Xrotation Yrotation Zrotation
					JOINT RightToeBase
					{
						OFFSET -0.192200 -14.009700 16.364100
						CHANNELS 3 Xrotation Yrotation Zrotation
						JOINT RightToe_End
						{
							OFFSET 1.784700 -0.561700 9.474800
							CHANNELS 3 Xrotation Yrotation Zrotation
							End Site
							{
								OFFSET 0 0 0
							}
						}
					}
				}
			}
		}
	}
	JOINT Spine_virtual
	{
		OFFSET 0.000000 0.000000 0.000000
		CHANNELS 3 Xrotation Yrotation Zrotation
		JOINT Spine
		{
			OFFSET 0.072000 7.257294 -0.789700
			CHANNELS 3 Xrotation Yrotation Zrotation
			JOINT Spine1
			{
				OFFSET 0.000000 12.508769 -0.658067
				CHANNELS 3 Xrotation Yrotation Zrotation
				JOINT Spine1_split
				{
					OFFSET 0.000000 12.508769 -0.658067
					CHANNELS 3 Xrotation Yrotation Zrotation
					JOINT Spine2
					{
						OFFSET 0.000000 12.508769 -0.658067
						CHANNELS 3 Xrotation Yrotation Zrotation
						JOINT Neck_virtual
						{
							OFFSET 0.000000 0.000000 0.000000
							CHANNELS 3 Xrotation Yrotation Zrotation
							JOINT Neck
							{
								OFFSET 0.000000 14.033295 7.520400
								CHANNELS 3 Xrotation Yrotation Zrotation
								JOINT Head
								{
									OFFSET 0.000000 8.198502 5.703100
									CHANNELS 3 Xrotation Yrotation Zrotation
									JOINT HeadTop_End
									{
										OFFSET 0.000000 17.760803 13.332701
										CHANNELS 3 Xrotation Yrotation Zrotation
										End Site
										{
											OFFSET 0 0 0
										}
									}
								}
							}
						}
						JOINT LeftShoulder_virtual
						{
							OFFSET 0.000000 0.000000 0.000000
							CHANNELS 3 Xrotation Yrotation Zrotation
							JOINT LeftShoulder
							{
								OFFSET 6.292450 5.785301 -0.669000
								CHANNELS 3 Xrotation Yrotation Zrotation
								JOINT LeftShoulder_split
								{
									OFFSET 6.292450 5.785301 -0.669000
									CHANNELS 3 Xrotation Yrotation Zrotation
									JOINT LeftArm
									{
										OFFSET 13.907140 -6.093903 1.965100
										CHANNELS 3 Xrotation Yrotation Zrotation
										JOINT LeftForeArm
										{
											OFFSET 34.140198 0.000000 0.000000
											CHANNELS 3 Xrotation Yrotation Zrotation
											JOINT LeftHand
											{
												OFFSET 40.960209 0.000000 0.000000
												CHANNELS 3 Xrotation Yrotation Zrotation
												End Site
												{
													OFFSET 0 0 0
												}
											}
										}
									}
								}
							}
						}
						JOINT RightShoulder_virtual
						{
							OFFSET 0.000000 0.000000 0.000000
							CHANNELS 3 Xrotation Yrotation Zrotation
							JOINT RightShoulder
							{
								OFFSET -6.292450 5.785301 -0.669000
								CHANNELS 3 Xrotation Yrotation Zrotation
								JOINT RightShoulder_split
								{
									OFFSET -6.292450 5.785301 -0.669000
									CHANNELS 3 Xrotation Yrotation Zrotation
									JOINT RightArm
									{
										OFFSET -13.907140 -6.093903 1.965100
										CHANNELS 3 Xrotation Yrotation Zrotation
										JOINT RightForeArm
										{
											OFFSET -34.140198 0.000000 0.000000
											CHANNELS 3 Xrotation Yrotation Zrotation
											JOINT RightHand
											{
												OFFSET -40.960209 0.000000 0.000000
												CHANNELS 3 Xrotation Yrotation Zrotation
												End Site
												{
													OFFSET 0 0 0
												}
											}
										}
									}
								}
							}
						}
					}
				}
			}
		}
	}
}
MOTION
Frames: 6
Frame Time: 0.03333333
-4.584362 112.201019 -3.171955 0.000000 0.000000 0.000000 -0.830413 -43.682588 3.860574 -21.010738 8.381173 10.244512 13.890664 -5.716631 5.482864 3.413888 -3.747269 -18.368566 -1.866456 1.086275 0.767480 0.000000 0.000000 0.000000 -2.061946 -42.878958 3.957337 -9.595226 -9.048999 -16.185629 19.902085 -10.792948 -9.409890 -4.510862 -5.505948 22.416046 -5.052255 -0.600737 -0.112559 0.000000 0.000000 0.000000 -1.203101 -45.356045 3.422696 7.307930 3.333264 -0.633604 0.212879 2.387504 -1.498951 1.133135 -1.619760 1.046466 0.000000 0.000000 0.000000 -0.662027 2.051933 -1.426498 -17.087487 -1.995048 19.232518 -1.629671 18.237691 -17.021098 0.000000 0.000000 0.000000 -0.228697 1.789241 -1.298427 -7.449779 -7.384778 -13.865678 -5.879674 -2.236350 -3.046900 4.477545 -4.541198 -30.078609 43.857638 -38.803114 17.352562 0.000000 0.000000 0.000000 -0.782843 1.739675 -1.086228 -1.927289 14.160527 -18.948697 -5.446358 3.266980 0.052443 -73.296249 10.914553 18.425887 -76.036111 34.107813 55.848811 0.000000 0.000000 0.000000 
-3.105665 111.491158 -3.314369 0.000000 0.000000 0.000000 -1.119648 -45.914376 3.893123 -22.050062 8.422786 10.648329 15.765644 -4.639102 4.701612 2.371119 -3.154021 -17.422858 -1.443361 1.104423 0.685064 0.000000 0.000000 0.000000 -2.032931 -44.958119 4.049394 -11.782474 -8.544454 -17.033440 20.859037 -9.825149 -9.555582 -4.268510 -5.391649 22.586683 -4.305586 -0.671954 -0.161467 0.000000 0.000000 0.000000 -1.666308 -47.590272 3.219011 7.798892 3.510138 -0.315586 0.925894 2.405232 -1.246765 1.015746 -1.538301 1.158755 0.000000 0.000000 0.000000 -0.098011 2.071014 -1.205554 -17.417872 1.625258 19.205556 0.183157 21.457873 -16.604910 0.000000 0.000000 0.000000 0.475961 1.766004 -1.144470 -7.077081 -6.950904 -13.186061 -6.087050 -2.522607 -3.815858 3.921916 -3.325624 -30.488585 44.085395 -39.954793 18.124025 0.000000 0.000000 0.000000 -0.202919 1.751236 -0.846538 -2.784177 14.473120 -13.043329 -4.653629 3.773467 0.192150 -65.826843 12.618664 19.086270 -78.891424 40.981658 60.777120 0.000000 0.000000 0.000000 
-1.761461 110.672623 -3.460903 0.000000 0.000000 0.000000 -1.297573 -48.272666 3.958634 -23.372363 8.461430 11.259479 18.112723 -3.628930 3.925832 1.380193 -2.635864 -16.619249 -0.992859 1.142372 0.556931 0.000000 0.000000 0.000000 -2.027931 -47.060123 4.131215 -14.138361 -8.029483 -17.828443 22.290497 -8.681216 -9.656464 -4.107196 -4.946130 22.990244 -3.629683 -0.706374 -0.286102 0.000000 0.000000 0.000000 -1.914930 -49.759451 3.134564 8.272846 3.657865 -0.052266 1.684167 2.434760 -1.098936 1.058493 -1.570392 1.168657 0.000000 0.000000 0.000000 0.507457 2.100833 -1.090361 -18.083382 4.998703 18.836357 1.555673 23.758816 -15.899330 0.000000 0.000000 0.000000 1.236807 1.758176 -1.066455 -6.749802 -6.673623 -12.458399 -6.373789 -2.790835 -4.721377 3.244496 -3.112021 -30.699443 43.182768 -40.021008 17.897631 0.000000 0.000000 0.000000 0.461337 1.768099 -0.705350 -3.723503 14.824502 -7.104643 -3.720194 4.536110 0.505007 -57.444801 13.723342 19.214080 -81.713036 48.032943 64.478564 0.000000 0.000000 0.000000 
-0.561230 109.766861 -3.532536 0.000000 0.000000 0.000000 -1.358631 -50.500476 4.026135 -24.965223 8.383736 11.994787 20.758284 -2.792724 3.182844 0.481152 -2.307816 -16.112707 -0.527303 1.189933 0.394500 0.000000 0.000000 0.000000 -2.023862 -48.984956 4.204212 -16.535917 -7.509083 -18.451495 24.040261 -7.465695 -9.726883 -4.208210 -4.316479 23.355600 -2.889849 -0.700646 -0.456710 0.000000 0.000000 0.000000 -1.944972 -51.732768 3.163044 8.705409 3.735713 0.142316 2.430868 2.460485 -1.038393 1.071034 -1.634160 1.141817 0.000000 0.000000 0.000000 1.119942 2.119670 -1.050656 -18.996105 8.129342 18.200511 2.608561 25.297422 -15.049222 0.000000 0.000000 0.000000 1.985119 1.745153 -1.041876 -6.478564 -6.609840 -11.693852 -6.717977 -2.964784 -5.619502 2.399680 -3.647301 -30.697626 41.283552 -39.190953 16.796286 0.000000 0.000000 0.000000 1.167405 1.787842 -0.643302 -4.651167 15.234008 -1.444181 -3.022537 4.872980 0.800098 -48.932776 14.421388 19.097900 -82.947129 54.884245 65.522066 0.000000 0.000000 0.000000 
0.465553 108.795197 -3.592564 0.000000 0.000000 0.000000 -1.317282 -52.350081 4.111665 -26.731223 8.127450 12.727817 23.456109 -2.201325 2.514323 -0.341427 -2.218986 -15.838225 -0.172798 1.219811 0.299246 0.000000 0.000000 0.000000 -1.987145 -50.627551 4.271363 -18.861895 -6.960407 -18.865117 25.982301 -6.385642 -9.745124 -4.583543 -3.710084 23.337525 -2.064521 -0.662283 -0.616840 0.000000 0.000000 0.000000 -1.739920 -53.431784 3.355222 9.078818 3.726000 0.260478 3.097525 2.467550 -1.033217 1.130220 -1.673455 1.074562 0.000000 0.000000 0.000000 1.702054 2.110812 -1.053478 -20.007420 11.030233 17.401422 3.470107 26.276001 -14.236244 0.000000 0.000000 0.000000 2.661243 1.714459 -1.035297 -6.284460 -6.796024 -10.926429 -6.889995 -3.038206 -6.439802 1.362551 -4.639694 -30.498441 38.747745 -37.857925 15.146797 0.000000 0.000000 0.000000 1.833694 1.805647 -0.627911 -5.506420 15.678675 3.568769 -2.306307 5.035573 1.253984 -41.064559 14.945140 18.917435 -80.893113 61.160594 62.401059 0.000000 0.000000 0.000000 
1.261754 107.813416 -3.572681 0.000000 0.000000 0.000000 -1.184284 -53.756352 4.263572 -28.533371 7.710791 13.383440 26.080324 -1.864559 1.951160 -1.044239 -2.352482 -15.751239 0.122362 1.226373 0.273827 0.000000 0.000000 0.000000 -1.936181 -51.987848 4.387260 -21.066948 -6.392398 -19.163662 28.013278 -5.531730 -9.706447 -5.114676 -3.254242 22.894401 -1.288344 -0.606166 -0.738220 0.000000 0.000000 0.000000 -1.392803 -54.793854 3.691596 9.387851 3.631247 0.283856 3.630216 2.443737 -1.063679 0.999272 -1.610523 0.922211 0.000000 0.000000 0.000000 2.251203 2.058758 -1.079018 -20.944406 13.701990 16.563907 4.292742 26.913175 -13.593889 0.000000 0.000000 0.000000 3.222663 1.659718 -1.027324 -6.164681 -7.232326 -10.162963 -6.851950 -3.018052 -7.113365 0.128561 -5.741426 -30.118218 35.900659 -36.498939 13.293332 0.000000 0.000000 0.000000 2.413087 1.798333 -0.650972 -6.225846 16.113876 7.633263 -1.603571 4.727110 1.780820 -34.289421 15.396928 18.890416 -73.719598 66.387007 53.583261 0.000000 0.000000 0.000000 
